<svg width="18" height="22" viewBox="0 0 18 22" fill="none" xmlns="http://www.w3.org/2000/svg">
<path d="M9 6C10.11 6 11 5.1 11 4C11 3.62 10.9 3.27 10.71 2.97L9 0L7.29 2.97C7.1 3.27 7 3.62 7 4C7 4.53043 7.21071 5.03914 7.58579 5.41421C7.96086 5.78929 8.46957 6 9 6ZM13.6 16L12.53 14.92L11.45 16C10.15 17.29 7.87 17.3 6.56 16L5.5 14.92L4.4 16C3.75 16.64 2.88 17 1.96 17C1.23 17 0.56 16.77 0 16.39V21C0 21.2652 0.105357 21.5196 0.292893 21.7071C0.48043 21.8946 0.734784 22 1 22H17C17.2652 22 17.5196 21.8946 17.7071 21.7071C17.8946 21.5196 18 21.2652 18 21V16.39C17.44 16.77 16.77 17 16.04 17C15.12 17 14.25 16.64 13.6 16ZM15 9H10V7H8V9H3C2.20435 9 1.44129 9.31607 0.87868 9.87868C0.316071 10.4413 0 11.2044 0 12V13.54C0 14.62 0.88 15.5 1.96 15.5C2.5 15.5 3 15.3 3.34 14.93L5.5 12.8L7.61 14.93C8.35 15.67 9.64 15.67 10.38 14.93L12.5 12.8L14.65 14.93C15 15.3 15.5 15.5 16.03 15.5C17.11 15.5 18 14.62 18 13.54V12C18 11.2044 17.6839 10.4413 17.1213 9.87868C16.5587 9.31607 15.7956 9 15 9Z" fill="black" fill-opacity="0.87"/>
</svg>
